<svg width="58" height="58" viewBox="0 0 58 58" fill="none" xmlns="http://www.w3.org/2000/svg">
<g id="heroicons-solid/banknotes">
<g id="Union">
<path d="M29 18.125C25.997 18.125 23.5625 20.5595 23.5625 23.5625C23.5625 26.5655 25.997 29 29 29C32.003 29 34.4375 26.5655 34.4375 23.5625C34.4375 20.5595 32.003 18.125 29 18.125Z" fill="url(#paint0_linear_58_3356)"/>
<path fill-rule="evenodd" clip-rule="evenodd" d="M3.625 11.7812C3.625 9.27871 5.65371 7.25 8.15625 7.25H49.8438C52.3463 7.25 54.375 9.27871 54.375 11.7812V35.3438C54.375 37.8463 52.3463 39.875 49.8438 39.875H8.15625C5.65371 39.875 3.625 37.8463 3.625 35.3438V11.7812ZM19.9375 23.5625C19.9375 18.5574 23.9949 14.5 29 14.5C34.0051 14.5 38.0625 18.5574 38.0625 23.5625C38.0625 28.5676 34.0051 32.625 29 32.625C23.9949 32.625 19.9375 28.5676 19.9375 23.5625ZM45.3125 21.75C44.3115 21.75 43.5 22.5615 43.5 23.5625V23.5806C43.5 24.5816 44.3115 25.3931 45.3125 25.3931H45.3306C46.3316 25.3931 47.1431 24.5816 47.1431 23.5806V23.5625C47.1431 22.5615 46.3316 21.75 45.3306 21.75H45.3125ZM10.875 23.5625C10.875 22.5615 11.6865 21.75 12.6875 21.75H12.7056C13.7066 21.75 14.5181 22.5615 14.5181 23.5625V23.5806C14.5181 24.5816 13.7066 25.3931 12.7056 25.3931H12.6875C11.6865 25.3931 10.875 24.5816 10.875 23.5806V23.5625Z" fill="url(#paint1_linear_58_3356)"/>
<path d="M5.4375 43.5C4.43648 43.5 3.625 44.3115 3.625 45.3125C3.625 46.3135 4.43648 47.125 5.4375 47.125C18.4876 47.125 31.1272 48.8703 43.137 52.1393C46.0142 52.9225 48.9375 50.7906 48.9375 47.7416V45.3125C48.9375 44.3115 48.126 43.5 47.125 43.5H5.4375Z" fill="url(#paint2_linear_58_3356)"/>
</g>
</g>
<defs>
<linearGradient id="paint0_linear_58_3356" x1="4.07165" y1="33.9694" x2="54.5" y2="33.6109" gradientUnits="userSpaceOnUse">
<stop stop-color="#7861EF"/>
<stop offset="0.46875" stop-color="#279AF5"/>
<stop offset="1" stop-color="#2FFF81"/>
</linearGradient>
<linearGradient id="paint1_linear_58_3356" x1="4.07165" y1="33.9694" x2="54.5" y2="33.6109" gradientUnits="userSpaceOnUse">
<stop stop-color="#7861EF"/>
<stop offset="0.46875" stop-color="#279AF5"/>
<stop offset="1" stop-color="#2FFF81"/>
</linearGradient>
<linearGradient id="paint2_linear_58_3356" x1="4.07165" y1="33.9694" x2="54.5" y2="33.6109" gradientUnits="userSpaceOnUse">
<stop stop-color="#7861EF"/>
<stop offset="0.46875" stop-color="#279AF5"/>
<stop offset="1" stop-color="#2FFF81"/>
</linearGradient>
</defs>
</svg>
