<svg width="58" height="58" viewBox="0 0 58 58" fill="none" xmlns="http://www.w3.org/2000/svg">
<g id="heroicons-solid/document-chart-bar">
<g id="Subtract">
<path fill-rule="evenodd" clip-rule="evenodd" d="M13.5938 3.625H21.75C26.7551 3.625 30.8125 7.68242 30.8125 12.6875V17.2188C30.8125 19.7213 32.8412 21.75 35.3438 21.75H39.875C44.8801 21.75 48.9375 25.8074 48.9375 30.8125V49.8438C48.9375 52.3463 46.9088 54.375 44.4062 54.375H13.5937C11.0912 54.375 9.0625 52.3463 9.0625 49.8438V8.15625C9.0625 5.65371 11.0912 3.625 13.5938 3.625ZM23.5625 41.6875C23.5625 40.6865 22.751 39.875 21.75 39.875C20.749 39.875 19.9375 40.6865 19.9375 41.6875V43.5C19.9375 44.501 20.749 45.3125 21.75 45.3125C22.751 45.3125 23.5625 44.501 23.5625 43.5V41.6875ZM29 34.4375C30.001 34.4375 30.8125 35.249 30.8125 36.25V43.5C30.8125 44.501 30.001 45.3125 29 45.3125C27.999 45.3125 27.1875 44.501 27.1875 43.5V36.25C27.1875 35.249 27.999 34.4375 29 34.4375ZM38.0625 30.8125C38.0625 29.8115 37.251 29 36.25 29C35.249 29 34.4375 29.8115 34.4375 30.8125V43.5C34.4375 44.501 35.249 45.3125 36.25 45.3125C37.251 45.3125 38.0625 44.501 38.0625 43.5V30.8125Z" fill="url(#paint0_linear_58_3350)"/>
<path d="M34.4375 12.6875C34.4375 9.51429 33.2726 6.61315 31.347 4.38844C39.5611 6.53412 46.0284 13.0014 48.1741 21.2154C45.9493 19.2899 43.0482 18.125 39.875 18.125H35.3438C34.8432 18.125 34.4375 17.7193 34.4375 17.2188V12.6875Z" fill="url(#paint1_linear_58_3350)"/>
</g>
</g>
<defs>
<linearGradient id="paint0_linear_58_3350" x1="9.41344" y1="33.7236" x2="49.0367" y2="33.5271" gradientUnits="userSpaceOnUse">
<stop stop-color="#7861EF"/>
<stop offset="0.46875" stop-color="#279AF5"/>
<stop offset="1" stop-color="#2FFF81"/>
</linearGradient>
<linearGradient id="paint1_linear_58_3350" x1="9.41344" y1="33.7236" x2="49.0367" y2="33.5271" gradientUnits="userSpaceOnUse">
<stop stop-color="#7861EF"/>
<stop offset="0.46875" stop-color="#279AF5"/>
<stop offset="1" stop-color="#2FFF81"/>
</linearGradient>
</defs>
</svg>
