<svg width="211" height="25" viewBox="0 0 211 25" fill="none" xmlns="http://www.w3.org/2000/svg">
<g id="Logo">
<path d="M175.296 7.7374C175.159 7.7374 175.034 7.68265 174.941 7.59417C174.841 7.49937 174.778 7.36584 174.778 7.21942V5.46675C174.778 5.18368 175.01 4.94879 175.293 4.94879H207.314C209.034 4.94879 210.486 6.13873 210.889 7.7374C210.962 8.02484 211 8.3255 211 8.63482V11.0801C211 12.9111 209.645 14.4409 207.886 14.718L208.507 15.79L208.597 15.9527C208.621 15.9888 208.639 16.0189 208.663 16.049C208.892 16.3863 209.247 16.5911 209.651 16.6272C209.693 16.6272 209.729 16.6333 209.771 16.6333H210.482C210.765 16.6272 211 16.8621 211 17.1452V18.8979C210.988 19.1749 210.759 19.3917 210.482 19.3917H208.97C208.597 19.3917 208.248 19.3255 207.922 19.193C207.362 18.9701 206.886 18.5606 206.567 18.0005L205.429 16.031L205.085 15.4407C204.839 15.0071 204.411 14.7601 203.917 14.7601H198.34C197.539 14.7601 196.882 15.4166 196.882 16.2177L196.882 18.7112L196.888 18.8738C196.888 19.1569 196.653 19.3918 196.37 19.3918H194.618C194.335 19.3918 194.1 19.1569 194.1 18.8738V15.6636C194.1 13.6338 195.756 11.9775 197.786 11.9775H206.76C207.561 11.9775 208.217 11.321 208.217 10.52V9.18893C208.217 8.38788 207.561 7.73138 206.76 7.73138L175.296 7.7374ZM175.296 16.6031H189.962C190.245 16.6031 190.48 16.838 190.48 17.1211V18.8738C190.48 19.1569 190.245 19.3917 189.962 19.3917H175.296C175.013 19.3917 174.778 19.1569 174.778 18.8738V17.1211C174.778 16.838 175.013 16.6031 175.296 16.6031ZM174.778 13.0436V11.2969C174.778 11.0078 175.013 10.779 175.296 10.779H188.438C188.721 10.779 188.956 11.0078 188.956 11.2969V13.0436C188.956 13.3327 188.721 13.5616 188.438 13.5616H175.296C175.013 13.5616 174.778 13.3327 174.778 13.0436ZM134.654 4.94879H138.074C139.074 4.94879 139.936 5.43061 140.454 6.29189L144.652 13.2243L146.302 15.9587C146.555 16.3743 146.97 16.6092 147.458 16.6092H147.85V5.46675C147.85 5.18368 148.085 4.94879 148.368 4.94879H150.12C150.403 4.94879 150.638 5.18368 150.638 5.46675V18.8738C150.638 19.1569 150.403 19.3917 150.12 19.3917H146.699C145.693 19.3917 144.838 18.9039 144.314 18.0486L138.466 8.38185C138.219 7.96627 137.797 7.73137 137.316 7.73137H136.924V18.8738C136.924 19.1569 136.689 19.3917 136.406 19.3917H134.653C134.37 19.3917 134.136 19.1569 134.136 18.8738V5.46675C134.136 5.18368 134.37 4.94879 134.654 4.94879ZM112.718 5.46675C112.718 5.18368 112.953 4.94879 113.236 4.94879H114.989C115.272 4.94879 115.507 5.18368 115.507 5.46675V15.1516C115.507 15.9527 116.157 16.6031 116.958 16.6031H126.276C127.077 16.6031 127.727 15.9527 127.727 15.1516V5.46675C127.727 5.18368 127.962 4.94879 128.245 4.94879H129.998C130.281 4.94879 130.516 5.18368 130.516 5.46675V15.7057C130.516 17.7354 128.859 19.3917 126.83 19.3917H116.404C114.374 19.3917 112.718 17.7354 112.718 15.7057V5.46675ZM63.029 19.3917C62.7459 19.3917 62.511 19.1569 62.511 18.8738V5.46675C62.511 5.18368 62.7459 4.94879 63.029 4.94879H66.1428C67.3594 4.94879 68.3954 5.6896 68.7808 6.846L69.0278 7.59887L69.7746 9.84542L71.8104 15.9888C71.8164 16.0129 71.8284 16.037 71.8345 16.0611C71.979 16.3983 72.2922 16.6092 72.6656 16.6092H72.8403C73.2077 16.6092 73.5269 16.3984 73.6714 16.0611C73.6775 16.037 73.6895 16.0129 73.6955 15.9888L74.4845 13.6097L75.7192 9.86951L76.4721 7.59887L76.719 6.85805C77.1045 5.70165 78.1465 4.94879 79.3631 4.94879H82.477C82.76 4.94879 82.9949 5.18368 82.9949 5.46675V18.8738C82.9949 19.1569 82.76 19.3917 82.477 19.3917H80.7243C80.4412 19.3917 80.2063 19.1569 80.2063 18.8738V7.74945H79.8148C79.4775 7.79161 79.3149 7.94218 79.1222 8.46015C79.1041 8.52038 79.08 8.58663 79.0559 8.65891L78.279 10.9898C78.2669 11.0379 78.2549 11.0801 78.2428 11.1223L76.1348 17.4825C76.1168 17.5307 76.1047 17.5728 76.0866 17.615C75.7614 18.4522 75.0868 19.0605 74.2557 19.2894C74.0148 19.3556 73.7558 19.3917 73.4908 19.3917H72.0151C71.7501 19.3917 71.4912 19.3556 71.2502 19.2894C70.4131 19.0605 69.7385 18.4522 69.4193 17.615C69.4012 17.5728 69.3892 17.5307 69.3711 17.4825L67.2631 11.1223C67.251 11.0801 67.239 11.038 67.2209 10.9898L66.45 8.65891C66.4259 8.58663 66.4018 8.52038 66.3837 8.46015C66.191 7.94218 66.0284 7.79161 65.6911 7.74945H65.2996V18.8738C65.2996 19.1569 65.0647 19.3917 64.7816 19.3917H63.029ZM87.1206 4.94879H88.8733C89.1564 4.94879 89.3913 5.18368 89.3913 5.46675V18.8738C89.3913 19.1569 89.1564 19.3917 88.8733 19.3917H87.1206C86.8375 19.3917 86.6027 19.1569 86.6027 18.8738V5.46675C86.6027 5.18368 86.8375 4.94879 87.1206 4.94879ZM93.011 7.21942V5.46675C93.011 5.18368 93.2459 4.94879 93.529 4.94879H108.592C108.881 4.94879 109.11 5.18368 109.11 5.46675V7.21942C109.11 7.5025 108.881 7.7374 108.592 7.7374H93.529C93.2459 7.7374 93.011 7.5025 93.011 7.21942ZM95.7997 15.0191V18.8738C95.7997 19.1569 95.5648 19.3917 95.2817 19.3917H93.529C93.2459 19.3917 93.011 19.1569 93.011 18.8738V14.459C93.011 12.4353 94.6673 10.779 96.6971 10.779H107.069C107.358 10.779 107.587 11.0078 107.587 11.2969V13.0436C107.587 13.3327 107.358 13.5616 107.069 13.5616H97.2512C96.4501 13.5616 95.7997 14.2181 95.7997 15.0191ZM154.252 5.46676C154.252 5.18368 154.487 4.94879 154.77 4.94879H167.466C169.496 4.94879 171.152 6.60509 171.152 8.63481V15.7057C171.152 17.7354 169.496 19.4158 167.466 19.4158L157.035 19.3917H154.77C154.624 19.3917 154.49 19.3289 154.395 19.2291C154.307 19.1359 154.252 19.0104 154.252 18.8738V5.46676ZM166.912 16.6031C167.713 16.6031 168.37 15.9527 168.37 15.1516V9.18892C168.37 8.38787 167.713 7.73137 166.912 7.73137H157.035V16.6031L166.912 16.6031Z" fill="white"/>
<path d="M52.006 17.8006C52.3385 18.1332 52.3385 18.7983 52.006 19.1309L47.5912 23.5456C47.2587 23.8782 46.5935 23.8782 46.261 23.5456L28.9872 6.27187C28.6547 5.9393 28.6547 5.27415 28.9872 4.94158L33.4019 0.526877C33.7345 0.194306 34.3997 0.194306 34.7322 0.526877L52.006 17.8006ZM21.5056 23.9132C21.173 24.2458 20.5079 24.2458 20.1753 23.9132L15.7606 19.4985C15.428 19.1659 15.428 18.5008 15.7606 18.1682L25.8619 8.06696C26.1944 7.73439 26.8596 7.73439 27.1921 8.06696L36.6565 17.5313C36.989 17.8638 36.989 18.529 36.6565 18.8616L32.2417 23.2763C31.9092 23.6088 31.244 23.6088 30.9115 23.2763L27.1921 19.557C26.8596 19.2244 26.1944 19.2244 25.8619 19.557L21.5056 23.9132ZM5.99442 23.7893C5.66185 24.1219 4.99671 24.1219 4.66413 23.7893L0.249428 19.3746C-0.0831428 19.042 -0.0831428 18.3769 0.249428 18.0443L18.0443 0.249428C18.3769 -0.0831428 19.042 -0.0831428 19.3746 0.249428L23.7893 4.66413C24.1219 4.99671 24.1219 5.66185 23.7893 5.99442L5.99442 23.7893Z" fill="url(#paint0_linear_2_2493)"/>
</g>
<defs>
<linearGradient id="paint0_linear_2_2493" x1="43.9958" y1="38.4078" x2="5.75834" y2="35.1163" gradientUnits="userSpaceOnUse">
<stop stop-color="#1EF7EC"/>
<stop offset="0.54487" stop-color="#279AF5"/>
<stop offset="1" stop-color="#7861EF"/>
</linearGradient>
</defs>
</svg>
