<svg width="24" height="24" viewBox="0 0 24 24" fill="none" xmlns="http://www.w3.org/2000/svg">
<g id="ri:discord-line">
<path id="Vector" d="M8.51996 13.846C7.47996 13.846 6.63196 12.901 6.63196 11.744C6.63196 10.588 7.45896 9.64401 8.52096 9.64401C9.57096 9.64401 10.431 10.588 10.41 11.744C10.41 12.901 9.57096 13.846 8.51996 13.846ZM15.494 13.846C14.454 13.846 13.604 12.901 13.604 11.744C13.604 10.588 14.433 9.64401 15.494 9.64401C16.544 9.64401 17.404 10.588 17.384 11.744C17.384 12.901 16.555 13.846 15.494 13.846ZM10.125 4.32301L9.81696 3.76001L9.18296 3.86501C7.74614 4.10458 6.34777 4.53506 5.02496 5.14501L4.79696 5.25101L4.65496 5.46001C2.04196 9.31401 1.32496 13.108 1.67996 16.836L1.71896 17.242L2.04896 17.482C3.58615 18.6099 5.30303 19.4697 7.12696 20.025L7.91696 20.267L9.02996 17.55C10.94 18.022 13.06 18.023 14.969 17.55L16.076 20.268L16.866 20.025C18.6913 19.4712 20.4091 18.6109 21.946 17.481L22.273 17.243L22.313 16.841C22.749 12.521 21.616 8.75701 19.355 5.45601L19.213 5.24901L18.985 5.14501C17.6625 4.53784 16.2658 4.10748 14.831 3.86501L14.213 3.76201L13.899 4.30301C13.806 4.46479 13.7183 4.62954 13.636 4.79701C12.5512 4.68495 11.4577 4.68495 10.373 4.79701C10.2933 4.63746 10.2106 4.47943 10.125 4.32301ZM6.71496 16.61C6.91196 16.724 7.11996 16.836 7.32496 16.938L6.87596 18.034C5.66156 17.5913 4.50938 16.9937 3.44796 16.256C3.22296 13.117 3.86096 9.95101 6.01196 6.68601C6.91972 6.28622 7.86597 5.9803 8.83596 5.77301C8.89596 5.89801 8.95196 6.02001 8.99796 6.12901L9.27096 6.77201L9.96296 6.67101C11.3191 6.47233 12.6969 6.47233 14.053 6.67101L14.743 6.77101L15.015 6.12901C15.062 6.01701 15.117 5.89501 15.175 5.77301C16.152 5.98301 17.098 6.29201 18.003 6.68801C19.878 9.50801 20.824 12.654 20.549 16.255C19.4876 16.994 18.3346 17.5917 17.119 18.033L16.674 16.939C16.88 16.836 17.088 16.724 17.287 16.61C17.777 16.328 18.304 15.976 18.64 15.64L17.36 14.36C17.197 14.524 16.837 14.78 16.383 15.042C15.939 15.298 15.498 15.505 15.216 15.598C13.213 16.261 10.788 16.261 8.78396 15.598C8.50296 15.505 8.06196 15.298 7.61796 15.042C7.16396 14.781 6.80396 14.524 6.63996 14.36L5.35996 15.64C5.69696 15.976 6.22496 16.328 6.71496 16.61Z" fill="white"/>
</g>
</svg>
