<svg width="58" height="58" viewBox="0 0 58 58" fill="none" xmlns="http://www.w3.org/2000/svg">
<g id="heroicons-solid/rocket-launch">
<g id="Union">
<path fill-rule="evenodd" clip-rule="evenodd" d="M22.5113 18.3272C29.4727 9.38381 40.3452 3.62552 52.5625 3.625C53.0432 3.62498 53.5042 3.81593 53.8442 4.15584C54.1841 4.49575 54.375 4.95678 54.375 5.4375C54.375 17.6553 48.6168 28.5288 39.6732 35.4908C39.8061 36.3294 39.875 37.1884 39.875 38.0625C39.875 47.0716 32.5716 54.375 23.5625 54.375C22.5615 54.375 21.75 53.5635 21.75 52.5625V42.5779C21.7276 42.5618 21.7056 42.5452 21.6839 42.5279C19.3832 40.7037 17.2985 38.619 15.4742 36.3183C15.4564 36.2959 15.4393 36.2731 15.4227 36.25H5.4375C4.43648 36.25 3.625 35.4385 3.625 34.4375C3.625 25.4284 10.9284 18.125 19.9375 18.125C20.8123 18.125 21.672 18.194 22.5113 18.3272ZM36.25 16.3125C33.2469 16.3125 30.8125 18.747 30.8125 21.75C30.8125 24.753 33.2469 27.1875 36.25 27.1875C39.253 27.1875 41.6875 24.753 41.6875 21.75C41.6875 18.747 39.253 16.3125 36.25 16.3125Z" fill="url(#paint0_linear_58_3358)"/>
<path d="M12.7125 41.6677C13.5149 41.0692 13.6801 39.9335 13.0816 39.1312C12.483 38.3288 11.3474 38.1636 10.545 38.7622C7.44838 41.0722 5.4375 44.7702 5.4375 48.9373C5.4375 49.6032 5.48896 50.2584 5.58844 50.8986C5.70959 51.6784 6.32138 52.2902 7.10119 52.4114C7.74146 52.5108 8.39658 52.5623 9.0625 52.5623C13.2297 52.5623 16.9276 50.5514 19.2376 47.4548C19.8362 46.6524 19.671 45.5168 18.8686 44.9182C18.0663 44.3197 16.9306 44.4849 16.3321 45.2873C14.6767 47.5062 12.037 48.9373 9.0625 48.9373C9.0625 45.9628 10.4936 43.3231 12.7125 41.6677Z" fill="url(#paint1_linear_58_3358)"/>
</g>
</g>
<defs>
<linearGradient id="paint0_linear_58_3358" x1="4.07165" y1="33.7236" x2="54.5006" y2="33.4053" gradientUnits="userSpaceOnUse">
<stop stop-color="#7861EF"/>
<stop offset="0.46875" stop-color="#279AF5"/>
<stop offset="1" stop-color="#2FFF81"/>
</linearGradient>
<linearGradient id="paint1_linear_58_3358" x1="4.07165" y1="33.7236" x2="54.5006" y2="33.4053" gradientUnits="userSpaceOnUse">
<stop stop-color="#7861EF"/>
<stop offset="0.46875" stop-color="#279AF5"/>
<stop offset="1" stop-color="#2FFF81"/>
</linearGradient>
</defs>
</svg>
