<svg width="58" height="58" viewBox="0 0 58 58" fill="none" xmlns="http://www.w3.org/2000/svg">
<g id="heroicons-solid/sparkles">
<g id="Vector">
<path fill-rule="evenodd" clip-rule="evenodd" d="M21.75 10.875C22.5592 10.875 23.2704 11.4115 23.4928 12.1896L25.458 19.0679C26.3182 22.0785 28.6715 24.4318 31.6821 25.292L38.5604 27.2572C39.3385 27.4796 39.875 28.1908 39.875 29C39.875 29.8092 39.3385 30.5204 38.5604 30.7428L31.6821 32.708C28.6715 33.5682 26.3182 35.9215 25.458 38.9321L23.4928 45.8104C23.2704 46.5885 22.5592 47.125 21.75 47.125C20.9408 47.125 20.2296 46.5885 20.0072 45.8104L18.042 38.9321C17.1818 35.9215 14.8285 33.5682 11.8179 32.708L4.93957 30.7428C4.16146 30.5204 3.625 29.8092 3.625 29C3.625 28.1908 4.16146 27.4796 4.93957 27.2572L11.8179 25.292C14.8285 24.4318 17.1818 22.0785 18.042 19.0679L20.0072 12.1896C20.2296 11.4115 20.9408 10.875 21.75 10.875Z" fill="url(#paint0_linear_51_3180)"/>
<path fill-rule="evenodd" clip-rule="evenodd" d="M43.5 3.625C44.3317 3.625 45.0567 4.19104 45.2584 4.9979L45.884 7.50027C46.4522 9.77314 48.2269 11.5478 50.4997 12.116L53.0021 12.7416C53.809 12.9433 54.375 13.6683 54.375 14.5C54.375 15.3317 53.809 16.0567 53.0021 16.2584L50.4997 16.884C48.2269 17.4522 46.4522 19.2269 45.884 21.4997L45.2584 24.0021C45.0567 24.809 44.3317 25.375 43.5 25.375C42.6683 25.375 41.9433 24.809 41.7416 24.0021L41.116 21.4997C40.5478 19.2269 38.7731 17.4522 36.5003 16.884L33.9979 16.2584C33.191 16.0567 32.625 15.3317 32.625 14.5C32.625 13.6683 33.191 12.9433 33.9979 12.7416L36.5003 12.116C38.7731 11.5478 40.5478 9.77314 41.116 7.50027L41.7416 4.9979C41.9433 4.19104 42.6683 3.625 43.5 3.625Z" fill="url(#paint1_linear_51_3180)"/>
<path fill-rule="evenodd" clip-rule="evenodd" d="M39.875 36.25C40.6552 36.25 41.3478 36.7492 41.5945 37.4893L42.5472 40.3476C42.9081 41.43 43.7575 42.2794 44.8399 42.6403L47.6982 43.593C48.4383 43.8397 48.9375 44.5323 48.9375 45.3125C48.9375 46.0927 48.4383 46.7853 47.6982 47.032L44.8399 47.9847C43.7575 48.3456 42.9081 49.195 42.5472 50.2774L41.5945 53.1357C41.3478 53.8758 40.6552 54.375 39.875 54.375C39.0948 54.375 38.4022 53.8758 38.1555 53.1357L37.2028 50.2774C36.8419 49.195 35.9925 48.3456 34.9101 47.9847L32.0518 47.032C31.3117 46.7853 30.8125 46.0927 30.8125 45.3125C30.8125 44.5323 31.3117 43.8397 32.0518 43.593L34.9101 42.6403C35.9925 42.2794 36.8419 41.43 37.2028 40.3476L38.1555 37.4893C38.4022 36.7492 39.0948 36.25 39.875 36.25Z" fill="url(#paint2_linear_51_3180)"/>
</g>
</g>
<defs>
<linearGradient id="paint0_linear_51_3180" x1="4.07165" y1="33.7236" x2="54.5005" y2="33.4053" gradientUnits="userSpaceOnUse">
<stop stop-color="#7861EF"/>
<stop offset="0.46875" stop-color="#279AF5"/>
<stop offset="1" stop-color="#2FFF81"/>
</linearGradient>
<linearGradient id="paint1_linear_51_3180" x1="4.07165" y1="33.7236" x2="54.5005" y2="33.4053" gradientUnits="userSpaceOnUse">
<stop stop-color="#7861EF"/>
<stop offset="0.46875" stop-color="#279AF5"/>
<stop offset="1" stop-color="#2FFF81"/>
</linearGradient>
<linearGradient id="paint2_linear_51_3180" x1="4.07165" y1="33.7236" x2="54.5005" y2="33.4053" gradientUnits="userSpaceOnUse">
<stop stop-color="#7861EF"/>
<stop offset="0.46875" stop-color="#279AF5"/>
<stop offset="1" stop-color="#2FFF81"/>
</linearGradient>
</defs>
</svg>
